<!DOCTYPE svg PUBLIC "-//W3C//DTD SVG 1.1//EN" "http://www.w3.org/Graphics/SVG/1.1/DTD/svg11.dtd">
<!-- Uploaded to: SVG Repo, www.svgrepo.com, Transformed by: SVG Repo Mixer Tools -->
<svg fill="#000000" height="64px" width="64px" version="1.1" id="Capa_1" xmlns="http://www.w3.org/2000/svg" xmlns:xlink="http://www.w3.org/1999/xlink" viewBox="0 0 448.629 448.629" xml:space="preserve">
<g id="SVGRepo_bgCarrier" stroke-width="0"/>
<g id="SVGRepo_tracerCarrier" stroke-linecap="round" stroke-linejoin="round"/>
<g id="SVGRepo_iconCarrier"> <g> <path d="M221.279,182.561c50.319,0,91.257-40.948,91.257-91.28C312.536,40.949,271.598,0,221.279,0 c-50.331,0-91.278,40.949-91.278,91.281C130.001,141.613,170.948,182.561,221.279,182.561z"/> <circle cx="262.291" cy="264.136" r="29.572"/> <path d="M412.008,378.466l-86.234-165.309c-7.383-14.157-21.489-20.494-35.772-20.494h-0.041 c-1.413-0.1-134.222-0.045-135.718,0.158c-13.382,1.099-25.394,8.884-31.364,20.336L36.645,378.466 c-4.743,9.093-5.661,19.488-2.587,29.271c3.075,9.783,9.774,17.781,18.863,22.522c4.689,2.447,9.721,3.882,14.955,4.264 c0.92,0.066,1.854,0.101,2.777,0.101c14.371,0,27.424-7.91,34.063-20.643l25.686-49.238v64.955 c0,10.439,8.492,18.933,18.931,18.933h149.197c10.44,0,18.935-8.493,18.935-18.933v-66.456l26.469,50.739 c6.64,12.733,19.692,20.643,34.064,20.643c0.923,0,1.857-0.033,2.777-0.101c5.236-0.382,10.268-1.816,14.954-4.264 C414.495,420.474,421.798,397.24,412.008,378.466z M309.385,334.792c-0.143,0.231-0.493,0.621-1.23,0.621 c-0.368,0-0.793-0.1-1.263-0.296l-14.966-6.264c-0.368-0.154-0.806-0.235-1.266-0.235c-1.1,0-2.22,0.454-2.854,1.158l-7.189,7.969 c-0.6,0.665-1.341,1.031-2.088,1.031c-0.986,0-1.87-0.637-2.365-1.704l-14.085-30.384c-0.03,0.001-0.06,0.002-0.091,0.002 l-14.086,30.382c-0.494,1.067-1.379,1.704-2.365,1.704c-0.747,0-1.488-0.366-2.088-1.031l-7.189-7.969 c-0.635-0.704-1.755-1.158-2.855-1.158c-0.46,0-0.897,0.081-1.265,0.235l-14.968,6.264c-0.469,0.196-0.894,0.296-1.262,0.296 c-0.737,0-1.088-0.39-1.23-0.622c-0.226-0.366-0.377-1.037,0.186-2.151l18.271-36.172l-6.605-2.637 c-1.849-0.738-3.399-2.871-3.53-4.856l-0.6-9.027c-0.101-1.511-0.866-3.871-1.674-5.153l-4.82-7.654 c-1.059-1.685-1.059-4.321,0-6.006l4.82-7.654c0.808-1.282,1.573-3.643,1.674-5.153l0.6-9.027c0.131-1.985,1.682-4.118,3.53-4.856 l8.404-3.355c1.405-0.561,3.411-2.02,4.38-3.185l5.785-6.96c0.992-1.194,2.81-1.996,4.521-1.996c0.417,0,0.815,0.047,1.186,0.142 l8.775,2.234c1.397,0.355,4.014,0.356,5.412-0.001l8.775-2.233c1.897-0.482,4.476,0.369,5.708,1.854l5.785,6.96 c0.967,1.165,2.973,2.623,4.38,3.185l8.406,3.355c1.849,0.738,3.399,2.871,3.53,4.856l0.6,9.028 c0.101,1.511,0.866,3.871,1.674,5.153l4.82,7.654c1.06,1.685,1.06,4.321,0,6.006l-4.82,7.654c-0.808,1.282-1.573,3.643-1.674,5.153 l-0.6,9.028c-0.131,1.985-1.682,4.118-3.53,4.856l-7.033,2.807l18.182,36.001C309.762,333.753,309.611,334.424,309.385,334.792z"/> </g> </g>
</svg>